<svg xmlns="http://www.w3.org/2000/svg" viewBox="0 0 1631.578 475.581"><defs><style>.a{fill:none;stroke:#2545a5;stroke-miterlimit:10;stroke-width:2.576px;}.b{fill:#82c7d9;}.c{fill:#a4dce8;}.d{fill:#176a8a;}.e{fill:#2088af;}.f,.h,.l,.p,.t,.u{fill:#2545a5;}.f{font-size:30px;}.f,.h,.l,.p,.t{font-family:Quicksand-Medium, Quicksand;font-weight:500;}.g{fill:#fff;}.h{font-size:61px;}.i{fill:#2aa076;}.j{fill:#54bd95;}.k{fill:#05384a;}.l{font-size:63px;}.m{fill:#7cc9ab;}.n{fill:#a8d9c7;}.o{fill:#cde8de;}.p{font-size:59px;}.q{fill:#084b63;}.r{fill:#409dbd;}.s{fill:#c8e9f4;}.t{font-size:65px;}.u{font-size:18.533px;font-family:Quicksand-Regular, Quicksand;}.v{font-family:Quicksand-Regular;}.w{fill:#f05c5d;}.x{fill:#221f1f;}.y{fill:#a5d06a;}.z{fill:#7cd0f5;}.aa{fill:#f4c76d;}</style></defs><g transform="translate(-145 -6348.76)"><rect class="a" width="299.356" height="390.461" rx="3.593" transform="translate(461.796 6765.404) rotate(180)"/><g transform="translate(279.486 6417.804)"><path class="b" d="M197.319,1651.417l-7.355,77.629h7.355a7.125,7.125,0,0,0,7.354-6.825v-70.8Z" transform="translate(-140.786 -1650.137)"/><path class="c" d="M207.184,1651.417H152.029l5.515,11.943v58.862a7.125,7.125,0,0,0,7.354,6.825h34.931a7.125,7.125,0,0,0,7.354-6.825l-3.676-18.306,3.677-18.307v-34.191Z" transform="translate(-150.651 -1650.137)"/><path class="d" d="M192.824,1682.506l-5.088,15.277,5.088,16.835,5.06.013.014-.013v-33.685A8.32,8.32,0,0,0,192.824,1682.506Z" transform="translate(-141.365 -1642.462)"/><path class="e" d="M193.956,1684.345c-5.286,0-5.286-3.412-10.571-3.412s-5.286,3.412-10.572,3.412-5.286-3.412-10.571-3.412v33.685l.014.013h37.2V1682.5A8.78,8.78,0,0,1,193.956,1684.345Z" transform="translate(-147.995 -1642.462)"/><path d="M214.822,1650.4H152.313a1.408,1.408,0,0,0-1.15.576,1.2,1.2,0,0,0-.116,1.208l5.4,11.7v58.6c0,4.469,3.917,8.1,8.733,8.1h42.285c4.815,0,8.732-3.635,8.732-8.1v-70.8A1.332,1.332,0,0,0,214.822,1650.4Zm-1.38,72.085a5.778,5.778,0,0,1-5.974,5.545H165.184a5.778,5.778,0,0,1-5.975-5.545v-58.862a1.213,1.213,0,0,0-.112-.5l-4.691-10.16h59.037Z" transform="translate(-150.935 -1650.401)"/><path d="M161.663,1715.815a1.445,1.445,0,0,0,.877.292H204.8a1.44,1.44,0,0,0,.887-.3,1.348,1.348,0,0,0,.19-.179,1.219,1.219,0,0,0,.315-.813v-14.283a1.383,1.383,0,0,0-2.758,0v13.015H163.906v-31.035a7.526,7.526,0,0,1,3.119,1.375,10.494,10.494,0,0,0,12.146,0,7.584,7.584,0,0,1,9,0,10.494,10.494,0,0,0,12.146,0,7.547,7.547,0,0,1,3.12-1.376v12.9a1.383,1.383,0,0,0,2.758,0v-14.283a1.332,1.332,0,0,0-1.38-1.279,9.9,9.9,0,0,0-6.073,1.935,7.587,7.587,0,0,1-9,0,10.5,10.5,0,0,0-12.147,0,7.587,7.587,0,0,1-9,0,9.9,9.9,0,0,0-6.072-1.935,1.332,1.332,0,0,0-1.38,1.279v33.683a1.229,1.229,0,0,0,.325.826A1.488,1.488,0,0,0,161.663,1715.815Z" transform="translate(-148.279 -1642.742)"/></g><text class="f" transform="translate(308.787 6576.53)"><tspan x="-56.49" y="0">SAMPLE</tspan><tspan x="-91.26" y="35">COLLECTION</tspan></text><g transform="translate(145 6352.842)"><ellipse class="g" cx="38.681" cy="37.15" rx="38.681" ry="37.15" transform="translate(0 2.411)"/><text class="h" transform="translate(37.136 61)"><tspan x="-10.705" y="0">1</tspan></text></g><rect class="a" width="299.356" height="390.461" rx="3.593" transform="translate(790.003 6765.404) rotate(180)"/><g transform="translate(606.782 6417.816)"><path class="i" d="M466.237,1699.51v17.91h-4.948L449.742,1696.1Z" transform="translate(-400.529 -1638.531)"/><path class="j" d="M416.727,1696.1v2.388l-4.948,1.023v17.91H471.16V1696.1Z" transform="translate(-410.401 -1638.531)"/><path class="b" d="M467.6,1651.426v59.7H462.65l-18.144-29.85,18.144-29.85Z" transform="translate(-401.89 -1650.147)"/><rect class="c" width="59.382" height="59.7" transform="translate(1.378 1.279)"/><path class="g" d="M442.446,1703c-13.733,0-24.9-10.369-24.9-23.113s11.172-23.113,24.9-23.113,24.9,10.369,24.9,23.113S456.178,1703,442.446,1703Z" transform="translate(-408.902 -1648.757)"/><g transform="translate(8.73 66.096)"><ellipse class="k" cx="4.136" cy="3.838" rx="4.136" ry="3.838" transform="translate(41.355)"/><ellipse class="k" cx="4.136" cy="3.838" rx="4.136" ry="3.838"/></g><g transform="translate(17.93 14.925)"><ellipse class="j" cx="3.676" cy="3.411" rx="3.676" ry="3.411" transform="translate(11.938)"/><ellipse class="j" cx="3.676" cy="3.411" rx="3.676" ry="3.411" transform="translate(0 6.397)"/><ellipse class="j" cx="3.676" cy="3.411" rx="3.676" ry="3.411" transform="translate(0 19.19)"/><ellipse class="j" cx="3.676" cy="3.411" rx="3.676" ry="3.411" transform="translate(11.938 25.586)"/><ellipse class="j" cx="3.676" cy="3.411" rx="3.676" ry="3.411" transform="translate(23.876 19.19)"/><ellipse class="j" cx="3.676" cy="3.411" rx="3.676" ry="3.411" transform="translate(23.876 6.397)"/></g><path d="M476.394,1730.58h-64.33a1.332,1.332,0,0,1-1.378-1.279V1651.69a1.331,1.331,0,0,1,1.378-1.279h64.33a1.331,1.331,0,0,1,1.378,1.279V1729.3A1.332,1.332,0,0,1,476.394,1730.58Zm-62.952-2.559h61.573V1652.97H413.442Z" transform="translate(-410.685 -1650.411)"/><path d="M442.711,1704.438c-14.443,0-26.191-10.9-26.191-24.306s11.749-24.306,26.191-24.306,26.191,10.9,26.191,24.306S457.153,1704.438,442.711,1704.438Zm0-46.055c-12.922,0-23.434,9.756-23.434,21.748s10.513,21.748,23.434,21.748,23.434-9.756,23.434-21.748S455.633,1658.384,442.711,1658.384Z" transform="translate(-409.168 -1649.003)"/><path d="M454.854,1712.086a5.132,5.132,0,1,1,5.514-5.117A5.333,5.333,0,0,1,454.854,1712.086Zm0-7.676a2.566,2.566,0,1,0,2.757,2.559A2.666,2.666,0,0,0,454.854,1704.41Z" transform="translate(-400.633 -1637.034)"/><path d="M422.034,1712.086a5.132,5.132,0,1,1,5.514-5.117A5.333,5.333,0,0,1,422.034,1712.086Zm0-7.676a2.566,2.566,0,1,0,2.757,2.559A2.666,2.666,0,0,0,422.034,1704.41Z" transform="translate(-409.168 -1637.034)"/><path d="M464.255,1700.349h-5.514a1.283,1.283,0,1,1,0-2.558h5.514a1.283,1.283,0,1,1,0,2.558Z" transform="translate(-398.547 -1638.09)"/><path d="M465.366,1700.349h-53.3a1.283,1.283,0,1,1,0-2.558h53.3a1.283,1.283,0,1,1,0,2.558Z" transform="translate(-410.685 -1638.09)"/><path d="M448.677,1707.456H430.3a1.283,1.283,0,1,1,0-2.559h18.38a1.283,1.283,0,1,1,0,2.559Z" transform="translate(-405.944 -1636.243)"/><path d="M438.349,1670.622a4.7,4.7,0,1,1,5.054-4.691A4.889,4.889,0,0,1,438.349,1670.622Zm0-6.823a2.138,2.138,0,1,0,2.3,2.132A2.222,2.222,0,0,0,438.349,1663.8Z" transform="translate(-404.806 -1647.595)"/><path d="M428.867,1675.7a5.329,5.329,0,0,1-2.519-.63,4.723,4.723,0,0,1-2.355-2.849,4.37,4.37,0,0,1,.5-3.56,4.991,4.991,0,0,1,3.069-2.185,5.368,5.368,0,0,1,3.836.469,4.721,4.721,0,0,1,2.355,2.848,4.368,4.368,0,0,1-.505,3.56,4.983,4.983,0,0,1-3.068,2.185A5.465,5.465,0,0,1,428.867,1675.7Zm.011-6.826a2.467,2.467,0,0,0-.6.073,2.268,2.268,0,0,0-1.4.994,1.988,1.988,0,0,0-.229,1.618,2.148,2.148,0,0,0,1.071,1.294,2.436,2.436,0,0,0,1.743.213,2.265,2.265,0,0,0,1.395-.993,1.984,1.984,0,0,0,.231-1.618,2.145,2.145,0,0,0-1.071-1.3h0A2.427,2.427,0,0,0,428.878,1668.875Z" transform="translate(-407.27 -1646.275)"/><path d="M428.883,1685.854a5.453,5.453,0,0,1-1.317-.163,4.989,4.989,0,0,1-3.069-2.185,4.369,4.369,0,0,1-.5-3.56,4.718,4.718,0,0,1,2.355-2.848,5.354,5.354,0,0,1,3.836-.469,4.989,4.989,0,0,1,3.069,2.185,4.374,4.374,0,0,1,.5,3.56,4.718,4.718,0,0,1-2.355,2.848A5.33,5.33,0,0,1,428.883,1685.854Zm-.013-6.827a2.413,2.413,0,0,0-1.144.287h0a2.148,2.148,0,0,0-1.071,1.294,1.987,1.987,0,0,0,.229,1.618,2.268,2.268,0,0,0,1.4.994,2.437,2.437,0,0,0,1.743-.213,2.151,2.151,0,0,0,1.071-1.3,1.985,1.985,0,0,0-.231-1.618,2.265,2.265,0,0,0-1.395-.993A2.477,2.477,0,0,0,428.871,1679.027Z" transform="translate(-407.27 -1643.635)"/><path d="M438.349,1690.927a4.7,4.7,0,1,1,5.054-4.69A4.889,4.889,0,0,1,438.349,1690.927Zm0-6.822a2.138,2.138,0,1,0,2.3,2.132A2.222,2.222,0,0,0,438.349,1684.1Z" transform="translate(-404.806 -1642.314)"/><path d="M447.816,1685.854a5.335,5.335,0,0,1-2.52-.631,4.727,4.727,0,0,1-2.355-2.848,4.369,4.369,0,0,1,.505-3.56,4.989,4.989,0,0,1,3.069-2.185,5.354,5.354,0,0,1,3.836.469,4.726,4.726,0,0,1,2.355,2.848,4.37,4.37,0,0,1-.505,3.56,4.989,4.989,0,0,1-3.07,2.185A5.434,5.434,0,0,1,447.816,1685.854Zm.011-6.827a2.485,2.485,0,0,0-.6.074,2.272,2.272,0,0,0-1.395.993,1.989,1.989,0,0,0-.229,1.618,2.149,2.149,0,0,0,1.07,1.3h0a2.435,2.435,0,0,0,1.743.213,2.269,2.269,0,0,0,1.395-.993,1.984,1.984,0,0,0,.229-1.618,2.145,2.145,0,0,0-1.07-1.3A2.432,2.432,0,0,0,447.827,1679.027Z" transform="translate(-402.342 -1643.635)"/><path d="M447.832,1675.7a5.457,5.457,0,0,1-1.317-.163,4.989,4.989,0,0,1-3.069-2.185,4.363,4.363,0,0,1-.5-3.56,4.721,4.721,0,0,1,2.355-2.848,5.358,5.358,0,0,1,3.834-.469,4.991,4.991,0,0,1,3.069,2.185,4.37,4.37,0,0,1,.505,3.56,4.727,4.727,0,0,1-2.355,2.849A5.33,5.33,0,0,1,447.832,1675.7Zm-.013-6.826a2.423,2.423,0,0,0-1.144.286,2.146,2.146,0,0,0-1.071,1.3,1.984,1.984,0,0,0,.229,1.618,2.272,2.272,0,0,0,1.395.993,2.439,2.439,0,0,0,1.744-.213h0a2.146,2.146,0,0,0,1.07-1.294,1.986,1.986,0,0,0-.229-1.619,2.268,2.268,0,0,0-1.395-.993A2.464,2.464,0,0,0,447.82,1668.875Z" transform="translate(-402.342 -1646.275)"/></g><text class="f" transform="translate(635.713 6576.53)"><tspan x="-56.49" y="0">SAMPLE</tspan><tspan x="-125.055" y="35">CONCENTRATION</tspan></text><g transform="translate(480.432 6348.76)"><circle class="g" cx="38.681" cy="38.681" r="38.681" transform="translate(0 5.64)"/><text class="l" transform="translate(38.04 63)"><tspan x="-17.294" y="0">2</tspan></text></g><rect class="a" width="299.356" height="390.461" rx="3.593" transform="translate(1115.351 6765.404) rotate(180)"/><g transform="translate(858.55 6443.824)"><rect class="j" width="7.451" height="4.61" transform="translate(29.495 0.865)"/><path class="m" d="M623.22,1675.4l-4.6,47.3a3.5,3.5,0,0,0,1.862.528,3.3,3.3,0,0,0,3.233-2.325l5.461-19.753V1675.4Z" transform="translate(-608.38 -1669.921)"/><path class="n" d="M624.63,1675.4l-2.025,37.466-.714,6.279-.486,1.76a1.42,1.42,0,1,1-2.739,0l-5.461-19.753V1675.4Z" transform="translate(-609.789 -1669.921)"/><path class="g" d="M624.523,1675.4H617.2v12.923l3.664,3.976,3.664-3.976Z" transform="translate(-608.751 -1669.921)"/><path class="o" d="M617.147,1685.615V1698.2l3.726,12.584L624.6,1698.2v-12.584Z" transform="translate(-608.764 -1667.264)"/><path d="M649.924,1675.661h-1.552v-3.746a.9.9,0,0,0-.931-.865h-7.452a.9.9,0,0,0-.931.865v3.746H611.425a.867.867,0,1,0,0,1.729h1.552v24.888a.833.833,0,0,0,.029.216l5.461,19.751a4.361,4.361,0,0,0,8.27,0l5.461-19.751a.828.828,0,0,0,.029-.216V1677.39h17.7a.867.867,0,1,0,0-1.729Zm-9-2.882h5.588v2.882H640.92Zm-10.557,29.391-5.431,19.645a2.458,2.458,0,0,1-4.661,0l-5.432-19.645v-24.78h15.524v24.78Z" transform="translate(-610.494 -1671.051)"/><path d="M616.436,1698.3l3.726,13.476a.951.951,0,0,0,1.8,0l3.726-13.476a.779.779,0,0,0,.029-.214v-4.419a.934.934,0,0,0-1.862,0v4.309l-2.795,10.107-2.794-10.107v-11.322h5.588v3.555a.934.934,0,0,0,1.862,0v-4.419a.9.9,0,0,0-.931-.864h-7.452a.9.9,0,0,0-.931.864v12.3A.831.831,0,0,0,616.436,1698.3Z" transform="translate(-608.956 -1667.442)"/><g transform="translate(45.81)"><rect class="j" width="7.451" height="4.61" transform="translate(29.496 0.865)"/><path class="m" d="M659.576,1675.4l-4.6,47.3a3.5,3.5,0,0,0,1.864.528,3.3,3.3,0,0,0,3.232-2.325l5.461-19.753V1675.4Z" transform="translate(-644.735 -1669.921)"/><path class="n" d="M660.986,1675.4l-2.025,37.466-.713,6.279-.487,1.76a1.421,1.421,0,1,1-2.741,0l-5.46-19.753V1675.4Z" transform="translate(-646.145 -1669.921)"/><path class="g" d="M660.88,1675.4h-7.327v12.923l3.664,3.976,3.664-3.976Z" transform="translate(-645.107 -1669.921)"/><path class="o" d="M653.5,1685.615V1698.2l3.726,12.584,3.726-12.584v-12.584Z" transform="translate(-645.12 -1667.264)"/><path d="M686.281,1675.661h-1.552v-3.746a.9.9,0,0,0-.931-.865h-7.452a.9.9,0,0,0-.931.865v3.746H647.781a.867.867,0,1,0,0,1.729h1.552v24.888a.782.782,0,0,0,.03.216l5.46,19.751a4.362,4.362,0,0,0,8.271,0l5.46-19.751a.828.828,0,0,0,.029-.216V1677.39h17.7a.867.867,0,1,0,0-1.729Zm-9-2.882h5.588v2.882h-5.588Zm-10.557,29.391-5.431,19.645a2.459,2.459,0,0,1-4.662,0L651.2,1702.17v-24.78h15.524v24.78Z" transform="translate(-646.85 -1671.051)"/><path d="M652.793,1698.3l3.726,13.476a.951.951,0,0,0,1.8,0l3.726-13.476a.826.826,0,0,0,.029-.214v-4.419a.934.934,0,0,0-1.862,0v4.309l-2.795,10.107-2.795-10.107v-11.322h5.588v3.555a.934.934,0,0,0,1.864,0v-4.419a.9.9,0,0,0-.931-.864H653.7a.9.9,0,0,0-.931.864v12.3A.826.826,0,0,0,652.793,1698.3Z" transform="translate(-645.312 -1667.442)"/></g><g transform="translate(91.621)"><rect class="j" width="7.451" height="4.61" transform="translate(29.495 0.865)"/><path class="m" d="M695.933,1675.4l-4.6,47.3a3.5,3.5,0,0,0,1.862.528,3.3,3.3,0,0,0,3.233-2.325l5.461-19.753V1675.4Z" transform="translate(-681.093 -1669.921)"/><path class="n" d="M697.343,1675.4l-2.025,37.466-.714,6.279-.486,1.76a1.42,1.42,0,1,1-2.739,0l-5.461-19.753V1675.4Z" transform="translate(-682.502 -1669.921)"/><path class="g" d="M697.236,1675.4h-7.327v12.923l3.664,3.976,3.664-3.976Z" transform="translate(-681.464 -1669.921)"/><path class="o" d="M689.86,1685.615V1698.2l3.726,12.584,3.726-12.584v-12.584Z" transform="translate(-681.477 -1667.264)"/><path d="M722.638,1675.661h-1.552v-3.746a.9.9,0,0,0-.931-.865H712.7a.9.9,0,0,0-.931.865v3.746H684.138a.867.867,0,1,0,0,1.729h1.552v24.888a.83.83,0,0,0,.029.216l5.461,19.751a4.361,4.361,0,0,0,8.27,0l5.461-19.751a.833.833,0,0,0,.029-.216V1677.39h17.7a.867.867,0,1,0,0-1.729Zm-9-2.882h5.588v2.882h-5.588Zm-10.555,29.391-5.432,19.645a2.458,2.458,0,0,1-4.661,0l-5.432-19.645v-24.78h15.525v24.78Z" transform="translate(-683.207 -1671.051)"/><path d="M689.15,1698.3l3.725,13.476a.951.951,0,0,0,1.8,0l3.726-13.476a.776.776,0,0,0,.029-.214v-4.419a.934.934,0,0,0-1.862,0v4.309l-2.795,10.107-2.793-10.107v-11.322h5.588v3.555a.934.934,0,0,0,1.862,0v-4.419a.9.9,0,0,0-.931-.864h-7.452a.9.9,0,0,0-.931.864v12.3A.778.778,0,0,0,689.15,1698.3Z" transform="translate(-681.669 -1667.442)"/></g><g transform="translate(137.432)"><rect class="j" width="7.451" height="4.61" transform="translate(29.496 0.865)"/><path class="m" d="M732.289,1675.4l-4.594,47.3a3.492,3.492,0,0,0,1.862.528,3.3,3.3,0,0,0,3.232-2.325l5.461-19.753V1675.4Z" transform="translate(-717.448 -1669.921)"/><path class="n" d="M733.7,1675.4l-2.025,37.466-.713,6.279-.486,1.76a1.421,1.421,0,1,1-2.741,0l-5.46-19.753V1675.4Z" transform="translate(-718.858 -1669.921)"/><path class="g" d="M733.593,1675.4h-7.327v12.923l3.664,3.976,3.664-3.976Z" transform="translate(-717.82 -1669.921)"/><path class="o" d="M726.216,1685.615V1698.2l3.726,12.584,3.726-12.584v-12.584Z" transform="translate(-717.833 -1667.264)"/><path d="M758.994,1675.661h-1.552v-3.746a.9.9,0,0,0-.931-.865h-7.452a.9.9,0,0,0-.931.865v3.746H720.494a.867.867,0,1,0,0,1.729h1.552v24.888a.782.782,0,0,0,.03.216l5.46,19.751a4.362,4.362,0,0,0,8.271,0l5.46-19.751a.781.781,0,0,0,.029-.216V1677.39h17.7a.867.867,0,1,0,0-1.729Zm-9-2.882h5.588v2.882h-5.588Zm-10.557,29.391L734,1721.816a2.459,2.459,0,0,1-4.662,0l-5.431-19.645v-24.78h15.524v24.78Z" transform="translate(-719.563 -1671.051)"/><path d="M725.506,1698.3l3.726,13.476a.951.951,0,0,0,1.8,0l3.726-13.476a.831.831,0,0,0,.029-.214v-4.419a.934.934,0,0,0-1.862,0v4.309l-2.795,10.107-2.795-10.107v-11.322h5.588v3.555a.934.934,0,0,0,1.864,0v-4.419a.9.9,0,0,0-.931-.864h-7.452a.9.9,0,0,0-.931.864v12.3A.831.831,0,0,0,725.506,1698.3Z" transform="translate(-718.025 -1667.442)"/></g><g transform="translate(183.243)"><rect class="j" width="7.451" height="4.61" transform="translate(29.495 0.865)"/><path class="m" d="M768.646,1675.4l-4.6,47.3a3.5,3.5,0,0,0,1.862.528,3.3,3.3,0,0,0,3.233-2.325l5.461-19.753V1675.4Z" transform="translate(-753.806 -1669.921)"/><path class="n" d="M770.056,1675.4l-2.025,37.466-.714,6.279-.486,1.76a1.42,1.42,0,1,1-2.739,0l-5.461-19.753V1675.4Z" transform="translate(-755.215 -1669.921)"/><path class="g" d="M769.949,1675.4h-7.327v12.923l3.664,3.976,3.664-3.976Z" transform="translate(-754.177 -1669.921)"/><path class="o" d="M762.573,1685.615V1698.2l3.726,12.584,3.726-12.584v-12.584Z" transform="translate(-754.19 -1667.264)"/><path d="M795.351,1675.661H793.8v-3.746a.9.9,0,0,0-.931-.865h-7.452a.9.9,0,0,0-.931.865v3.746H756.851a.867.867,0,1,0,0,1.729H758.4v24.888a.828.828,0,0,0,.029.216l5.461,19.751a4.361,4.361,0,0,0,8.27,0l5.461-19.751a.833.833,0,0,0,.029-.216V1677.39h17.7a.867.867,0,1,0,0-1.729Zm-9-2.882h5.588v2.882h-5.588Zm-10.555,29.391-5.432,19.645a2.458,2.458,0,0,1-4.661,0l-5.432-19.645v-24.78h15.525v24.78Z" transform="translate(-755.92 -1671.051)"/><path d="M761.863,1698.3l3.725,13.476a.951.951,0,0,0,1.8,0l3.726-13.476a.779.779,0,0,0,.029-.214v-4.419a.934.934,0,0,0-1.862,0v4.309l-2.795,10.107-2.793-10.107v-11.322h5.588v3.555a.934.934,0,0,0,1.862,0v-4.419a.9.9,0,0,0-.931-.864h-7.452a.9.9,0,0,0-.931.864v12.3A.778.778,0,0,0,761.863,1698.3Z" transform="translate(-754.382 -1667.442)"/></g></g><text class="f" transform="translate(963.342 6576.515)"><tspan x="-30.81" y="0">RNA</tspan><tspan x="-92.28" y="35">EXTRACTION</tspan></text><g transform="translate(806.72 6355.903)"><ellipse class="g" cx="38.681" cy="38.001" rx="38.681" ry="38.001" transform="translate(0 4.055)"/><text class="p" transform="translate(37.5 59)"><tspan x="-15.37" y="0">3</tspan></text></g><rect class="a" width="299.356" height="390.461" rx="3.593" transform="translate(1444.615 6765.404) rotate(180)"/><rect class="a" width="299.356" height="390.461" rx="3.593" transform="translate(1775.29 6765.404) rotate(180)"/><g transform="translate(1265.598 6420.726)"><path class="k" d="M980.44,1694.953v23.673h-5.663l-5.663-26.961Z" transform="translate(-924.285 -1642.593)"/><path class="q" d="M940.324,1688.926l-5.662,6.74v23.673h49.076v-30.414Z" transform="translate(-933.244 -1643.305)"/><g transform="translate(24.358 60.416)"><ellipse class="r" cx="3.986" cy="3.699" rx="3.986" ry="3.699" transform="translate(15.146)"/><ellipse class="r" cx="3.986" cy="3.699" rx="3.986" ry="3.699" transform="translate(0 0.164)"/></g><path class="e" d="M982,1653.7v51.127h-5.663l-13.213-27.29,13.213-23.838Z" transform="translate(-925.843 -1652.465)"/><path class="r" d="M983.737,1653.7H934.662v51.127h49.076V1691.51l-3.775-13.974,3.775-13.974Z" transform="translate(-933.244 -1652.465)"/><path class="c" d="M969.429,1658.918h-5.314v37.811h5.314a5.15,5.15,0,0,0,5.315-4.932V1663.85A5.149,5.149,0,0,0,969.429,1658.918Z" transform="translate(-925.585 -1651.108)"/><path class="s" d="M970.33,1658.918h-24.8a5.148,5.148,0,0,0-5.314,4.932V1691.8a5.149,5.149,0,0,0,5.314,4.932h24.8a5.149,5.149,0,0,0,5.314-4.932V1663.85A5.148,5.148,0,0,0,970.33,1658.918Z" transform="translate(-931.8 -1651.108)"/><path d="M989.78,1652.72H934.865a1.283,1.283,0,0,0-1.328,1.234v74.8a1.283,1.283,0,0,0,1.328,1.234H989.78a1.284,1.284,0,0,0,1.329-1.234v-74.8A1.284,1.284,0,0,0,989.78,1652.72Zm-53.586,74.8V1706.15h42.957a1.236,1.236,0,1,0,0-2.466H936.194v-48.5h52.258v48.5h-3.986a1.236,1.236,0,1,0,0,2.466h3.986v21.371Z" transform="translate(-933.537 -1652.72)"/><path d="M969.078,1699.689a4.946,4.946,0,1,0,5.314,4.932A5.14,5.14,0,0,0,969.078,1699.689Zm0,7.4a2.473,2.473,0,1,1,2.657-2.466A2.569,2.569,0,0,1,969.078,1707.087Z" transform="translate(-925.677 -1640.506)"/><path d="M957.128,1699.689a4.946,4.946,0,1,0,5.315,4.932A5.14,5.14,0,0,0,957.128,1699.689Zm0,7.4a2.473,2.473,0,1,1,2.657-2.466A2.569,2.569,0,0,1,957.128,1707.087Z" transform="translate(-928.784 -1640.506)"/><path d="M948.981,1702.625H941.9a1.236,1.236,0,1,0,0,2.466h7.085a1.236,1.236,0,1,0,0-2.466Z" transform="translate(-931.709 -1639.743)"/><path d="M982.561,1692.052V1664.1a6.425,6.425,0,0,0-6.643-6.166H945.8a6.425,6.425,0,0,0-6.643,6.166v27.948a6.425,6.425,0,0,0,6.643,6.164h30.115A6.425,6.425,0,0,0,982.561,1692.052Zm-2.657,0a3.854,3.854,0,0,1-3.986,3.7H945.8a3.855,3.855,0,0,1-3.986-3.7V1664.1a3.855,3.855,0,0,1,3.986-3.7h30.115a3.854,3.854,0,0,1,3.986,3.7Z" transform="translate(-932.075 -1651.363)"/></g><text class="f" transform="translate(1291.708 6576.509)"><tspan x="-30.81" y="0">RNA</tspan><tspan x="-109.725" y="35">MEASUREMENT</tspan></text><text class="f" transform="translate(1623.629 6576.509)"><tspan x="-37.695" y="0">DATA</tspan><tspan x="-77.985" y="35">ANALYTICS</tspan></text><g transform="translate(1136.229 6357.024)"><circle class="g" cx="38.681" cy="38.681" r="38.681" transform="translate(0 5.842)"/><text class="t" transform="translate(36.455 65)"><tspan x="-20.962" y="0">4</tspan></text></g><g transform="translate(1466.919 6359.215)"><ellipse class="g" cx="38.681" cy="38.096" rx="38.681" ry="38.096" transform="translate(0 4.099)"/><text class="h" transform="translate(39.239 61)"><tspan x="-17.294" y="0">5</tspan></text></g><text class="u" transform="translate(184.136 6629.341)"><tspan x="3.43" y="19">Identification of the source of </tspan><tspan x="23.742" y="41.239">sample and collection of </tspan><tspan x="40.533" y="63.479">wastewater samples</tspan></text><text class="u" transform="translate(512.123 6629.341)"><tspan x="23.455" y="19">Sample concentration to </tspan><tspan x="26.615" y="41.239">counter dilution and get </tspan><tspan x="60.104" y="63.479">accurate results</tspan></text><text class="u" transform="translate(838.734 6629.341)"><tspan x="18.6" y="19">Extraction of SARS-CoV-2 </tspan><tspan x="13.688" y="41.239">virus RNA from the sample </tspan><tspan x="90.016" y="63.479">collected</tspan><tspan class="v"><tspan x="128.202" y="85.718"></tspan></tspan></text><text class="u" transform="translate(1168.396 6629.341)"><tspan x="36.743" y="19">Measurement of RNA </tspan><tspan x="7.257" y="41.239">genome to identify positivity </tspan><tspan x="85.114" y="63.479">and count</tspan></text><text class="u" transform="translate(1497.897 6629.341)"><tspan x="48.576" y="19">Analysis of data to </tspan><tspan x="26.754" y="41.239">understand the trend of </tspan><tspan x="5.525" y="63.479">spread and identify hotspots </tspan><tspan x="28.125" y="85.718">and containment zones</tspan></text><g transform="translate(1588.804 6420.726)"><path class="g" d="M1202.892,1716.818h-5.145a6.212,6.212,0,0,1-6.43-5.967v-50.979a6.212,6.212,0,0,1,6.43-5.967h66.232a6.212,6.212,0,0,1,6.43,5.967v50.979a6.212,6.212,0,0,1-6.43,5.967h-61.087Z" transform="translate(-1189.709 -1652.412)"/><path class="w" d="M1263.979,1653.9h-66.232a6.212,6.212,0,0,0-6.43,5.967v4.774h79.092v-4.774A6.212,6.212,0,0,0,1263.979,1653.9Z" transform="translate(-1189.709 -1652.412)"/><path class="x" d="M1192.721,1662.429h76.357" transform="translate(-1189.344 -1650.195)"/><rect class="y" width="10.288" height="16.41" transform="translate(9.003 58.481)"/><rect class="z" width="10.288" height="20.289" transform="translate(45.012 54.602)"/><rect class="aa" width="10.288" height="32.906" transform="translate(27.007 41.986)"/><rect class="w" width="10.288" height="35.133" transform="translate(63.016 39.758)"/><ellipse class="aa" cx="4.18" cy="3.879" rx="4.18" ry="3.879" transform="translate(27.067 21.773)"/><ellipse class="z" cx="4.18" cy="3.879" rx="4.18" ry="3.879" transform="translate(45.827 39.534)"/><ellipse class="w" cx="4.18" cy="3.879" rx="4.18" ry="3.879" transform="translate(63.981 21.773)"/><ellipse class="y" cx="4.18" cy="3.879" rx="4.18" ry="3.879" transform="translate(9.861 38.107)"/><path d="M1266.735,1718.436a5.429,5.429,0,0,0,5.614-5.209v-53.048c0-4.113-3.606-7.459-8.038-7.459h-66.232c-4.432,0-8.038,3.347-8.038,7.459v53.048a5.429,5.429,0,0,0,5.613,5.209h1.782v7.682h-5.787a1.5,1.5,0,1,0,0,2.984h79.092a1.5,1.5,0,1,0,0-2.984h-5.787v-7.682Zm-68.656-62.732h66.232a4.665,4.665,0,0,1,4.822,4.476v3.282h-75.715c-.054,0-.108,0-.161.008v-3.29A4.665,4.665,0,0,1,1198.079,1655.7Zm2.573,70.415v-13.426h7.073v13.426Zm18,0V1696.2h7.074v29.921Zm18,0v-17.305h7.074v17.305Zm18,0v-16.074a1.612,1.612,0,0,0-3.216,0v16.074h-4.5v-18.8a1.553,1.553,0,0,0-1.608-1.492h-10.288a1.553,1.553,0,0,0-1.606,1.492v18.8h-4.5v-31.413a1.553,1.553,0,0,0-1.607-1.492h-10.288a1.553,1.553,0,0,0-1.608,1.492v31.413h-4.5V1711.2a1.554,1.554,0,0,0-1.608-1.492h-10.288a1.553,1.553,0,0,0-1.608,1.492v4.251h-1.782a2.319,2.319,0,0,1-2.4-2.225v-46.789c.053.005.107.007.161.007h75.715v46.782a2.319,2.319,0,0,1-2.4,2.225h-1.782v-22.974a1.553,1.553,0,0,0-1.608-1.492h-10.288a1.554,1.554,0,0,0-1.608,1.492v7.534a1.612,1.612,0,0,0,3.216,0v-6.042h7.073v32.149Z" transform="translate(-1190.041 -1652.72)"/><path d="M1218.7,1659.967h36.321a1.5,1.5,0,1,0,0-2.984H1218.7a1.5,1.5,0,1,0,0,2.984Z" transform="translate(-1183.005 -1651.611)"/><path d="M1203.642,1659.967a1.691,1.691,0,0,0,1.137-.437,1.419,1.419,0,0,0,0-2.109,1.7,1.7,0,0,0-2.273,0,1.416,1.416,0,0,0,0,2.109A1.686,1.686,0,0,0,1203.642,1659.967Z" transform="translate(-1186.922 -1651.611)"/><path d="M1198.538,1659.967a1.685,1.685,0,0,0,1.136-.437,1.416,1.416,0,0,0,0-2.109,1.7,1.7,0,0,0-2.273,0,1.419,1.419,0,0,0,0,2.109A1.691,1.691,0,0,0,1198.538,1659.967Z" transform="translate(-1188.249 -1651.611)"/><path d="M1208.745,1659.967a1.689,1.689,0,0,0,1.136-.437,1.418,1.418,0,0,0,0-2.109,1.7,1.7,0,0,0-2.273,0,1.416,1.416,0,0,0,0,2.109A1.685,1.685,0,0,0,1208.745,1659.967Z" transform="translate(-1185.595 -1651.611)"/><path d="M1240.384,1693.288a1.676,1.676,0,0,0-1.136.437,1.415,1.415,0,0,0,0,2.109,1.7,1.7,0,0,0,2.273,0,1.415,1.415,0,0,0,0-2.109A1.674,1.674,0,0,0,1240.384,1693.288Z" transform="translate(-1177.368 -1642.17)"/><path d="M1256.5,1679.557a5.386,5.386,0,1,0-5.787-5.371,5.094,5.094,0,0,0,1.1,3.151l-10.678,9.909a6.17,6.17,0,0,0-5.336-.121l-11.15-10.346a5.043,5.043,0,0,0,.721-2.593,5.8,5.8,0,0,0-11.575,0,5.056,5.056,0,0,0,.867,2.824l-9.493,8.809a6.1,6.1,0,0,0-2.792-.669,5.386,5.386,0,1,0,5.786,5.372,5.037,5.037,0,0,0-.721-2.592l9.606-8.916a6.167,6.167,0,0,0,5.326-.125l11.042,10.245a5.055,5.055,0,0,0-.861,2.814,5.8,5.8,0,0,0,11.573,0,5.043,5.043,0,0,0-.721-2.592l10.965-10.175A6.138,6.138,0,0,0,1256.5,1679.557Zm0-7.758a2.394,2.394,0,1,1-2.573,2.387A2.488,2.488,0,0,1,1256.5,1671.8Zm-54.12,21.108a2.393,2.393,0,1,1,2.572-2.386A2.488,2.488,0,0,1,1202.378,1692.907Zm17.206-16.334a2.394,2.394,0,1,1,2.572-2.388A2.488,2.488,0,0,1,1219.584,1676.573Zm18.76,17.762a2.394,2.394,0,1,1,2.573-2.387A2.488,2.488,0,0,1,1238.344,1694.335Z" transform="translate(-1188.338 -1648.535)"/><path d="M1208.395,1670.625a1.687,1.687,0,0,0,1.136-.437,1.416,1.416,0,0,0,0-2.109,1.7,1.7,0,0,0-2.274,0,1.418,1.418,0,0,0,0,2.109A1.687,1.687,0,0,0,1208.395,1670.625Z" transform="translate(-1185.687 -1648.84)"/><path d="M1197.518,1670.625h7.716a1.5,1.5,0,1,0,0-2.984h-7.716a1.5,1.5,0,1,0,0,2.984Z" transform="translate(-1188.515 -1648.84)"/><path d="M1205.234,1676.308a1.5,1.5,0,1,0,0-2.984h-7.716a1.5,1.5,0,1,0,0,2.984Z" transform="translate(-1188.515 -1647.362)"/></g></g></svg>